<svg xmlns="http://www.w3.org/2000/svg" width="420" height="120" viewBox="0 0 420 120">
  <style>
    .lock-fill { fill: #9fd7ff; filter: drop-shadow(0 6px 18px rgba(99,102,241,0.35)); }
    .wordmark { font: 600 60px 'Space Grotesk', 'Segoe UI', sans-serif; fill: #eef2ff; letter-spacing: 0.02em; }
  </style>
  <g transform="translate(20 10)" class="lock-fill">
    <path d="M70 52v-22c0-21.5-14.7-30-30-30s-30 8.5-30 30v22c-9.5 5.4-16 15.6-16 27.4C-6 96.8 8.4 112 30 112s36-15.2 36-32.6c0-11.8-6.5-22-16-27.4Zm-48-22c0-14.6 8.2-20 18-20s18 5.4 18 20v16.4c-3.4-.9-7-1.4-10.8-1.4H32.8c-3.8 0-7.4.5-10.8 1.4ZM30 102c-13.2 0-24-9.4-24-22.6S16.8 56 30 56s24 9.4 24 23.4S43.2 102 30 102Zm0-36.2c-4.1 0-7.4 3.3-7.4 7.4S25.9 80.6 30 80.6s7.4-3.3 7.4-7.4S34.1 65.8 30 65.8Z"/>
  </g>
  <text class="wordmark" x="135" y="68" dominant-baseline="middle">Zerolock</text>
</svg>
